<svg width="512" height="512" viewBox="0 0 512 512" fill="none" xmlns="http://www.w3.org/2000/svg">
<path d="M32 128C32 74.9807 74.9807 32 128 32H384C437.019 32 480 74.9807 480 128V384C480 437.019 437.019 480 384 480H128C74.9807 480 32 437.019 32 384V128Z" fill="#597DDC" id="id_121"></path>
<path d="M32 112C32 67.8172 67.8172 32 112 32H368C412.183 32 448 67.8172 448 112V368C448 412.183 412.183 448 368 448H112C67.8172 448 32 412.183 32 368V112Z" fill="#6EBAFF" id="id_122"></path>
<path fill-rule="evenodd" clip-rule="evenodd" d="M24 128C24 70.5624 70.5624 24 128 24H384C441.438 24 488 70.5624 488 128V384C488 441.438 441.438 488 384 488H128C70.5624 488 24 441.438 24 384V128ZM128 40C79.3989 40 40 79.3989 40 128V384C40 432.601 79.3989 472 128 472H384C432.601 472 472 432.601 472 384V128C472 79.3989 432.601 40 384 40H128Z" fill="black" id="id_123"></path>
<path fill-rule="evenodd" clip-rule="evenodd" d="M132.913 108.243C143.827 106.537 154.056 114.002 155.761 124.915L183.055 299.595L237.027 137.678C239.75 129.511 247.392 124.003 256.001 124.003C264.61 124.003 272.252 129.511 274.975 137.678L328.947 299.595L356.241 124.915C357.946 114.002 368.175 106.537 379.088 108.243C390.002 109.948 397.466 120.177 395.761 131.09L355.761 387.09C354.337 396.206 346.861 403.165 337.667 403.933C328.472 404.702 319.945 399.081 317.027 390.327L256.001 207.248L194.975 390.327C192.057 399.081 183.53 404.702 174.335 403.933C165.141 403.165 157.665 396.206 156.241 387.09L116.241 131.09C114.535 120.177 122 109.948 132.913 108.243Z" fill="white" id="id_124"></path>
<path fill-rule="evenodd" clip-rule="evenodd" d="M131.678 100.34C146.956 97.9524 161.277 108.403 163.664 123.681L185.876 265.833L229.437 135.15C233.248 123.716 243.948 116.004 256 116.004C268.052 116.004 278.752 123.716 282.563 135.15L326.125 265.833L348.336 123.681C350.723 108.403 365.044 97.9524 380.323 100.34C395.601 102.727 406.052 117.048 403.664 132.327L363.664 388.327C361.67 401.089 351.204 410.831 338.332 411.907C325.46 412.983 313.522 405.113 309.437 392.858L256 232.548L202.563 392.858C198.478 405.113 186.541 412.983 173.668 411.907C160.796 410.831 150.33 401.089 148.336 388.327L108.336 132.327C105.948 117.048 116.399 102.727 131.678 100.34ZM147.856 126.152C146.833 119.604 140.696 115.125 134.148 116.148C127.6 117.171 123.121 123.309 124.144 129.857L164.144 385.857C164.999 391.326 169.484 395.501 175.001 395.962C180.518 396.423 185.634 393.051 187.384 387.799L248.411 204.72C249.5 201.453 252.557 199.25 256 199.25C259.444 199.25 262.501 201.453 263.59 204.72L324.616 387.799C326.367 393.051 331.483 396.423 336.999 395.962C342.516 395.501 347.002 391.326 347.856 385.857L387.856 129.857C388.879 123.309 384.401 117.171 377.853 116.148C371.305 115.125 365.167 119.604 364.144 126.152L336.85 300.832C336.28 304.478 333.29 307.261 329.612 307.569C325.935 307.876 322.524 305.628 321.357 302.126L267.384 140.209C265.751 135.309 261.165 132.004 256 132.004C250.835 132.004 246.249 135.309 244.616 140.209L190.644 302.126C189.476 305.628 186.066 307.876 182.388 307.569C178.71 307.261 175.72 304.478 175.15 300.831L147.856 126.152Z" fill="black" id="id_125"></path>
</svg>